<svg xmlns="http://www.w3.org/2000/svg" viewBox="0 0 98.77 101"><defs><style>.cls-1{fill:#f5dfad;}.cls-2{fill:#d0c3a3;}.cls-3{fill:#feaec9;}.cls-4{fill:#232323;}.cls-5{fill:#fff;}.cls-6{fill:none;stroke:#232323;stroke-linecap:round;stroke-miterlimit:10;stroke-width:1.69px;}</style></defs><title>Asteroid</title><g id="Layer_2" data-name="Layer 2"><g id="Planet_Characters" data-name="Planet Characters"><g id="Asteroid"><path class="cls-1" d="M18.3,13.62,47.44.89a10.71,10.71,0,0,1,8-.24L79,9.3a10.67,10.67,0,0,1,6.22,6L98,46.85a10.66,10.66,0,0,1,.26,7.32L87.42,87.48a10.71,10.71,0,0,1-7.72,7.1l-26.07,6.14a10.71,10.71,0,0,1-8.2-1.4L13.49,78.92a10.7,10.7,0,0,1-4-4.7L.9,54.76a10.72,10.72,0,0,1,0-8.6l11.89-27A10.74,10.74,0,0,1,18.3,13.62Z"/><path class="cls-2" d="M62.07,28.32,63.46,15.1a3,3,0,0,1,3.41-2.66l3,.43a3,3,0,0,1,1.6.75l9.83,8.94a3,3,0,0,1,.74,1l1.24,2.89A3,3,0,0,1,81,30.63l-1.29.21a3.06,3.06,0,0,0-1.63.84l-1.16,1.17a3,3,0,0,1-2.75.81l-9.77-2.09A3,3,0,0,1,62.07,28.32Z"/><path class="cls-2" d="M81,47l4.3,3.58A1.35,1.35,0,0,1,84.43,53H76.55a1.35,1.35,0,0,1-1-2.31l3.58-3.58A1.35,1.35,0,0,1,81,47Z"/><path class="cls-2" d="M78.37,63.6l4.27,10c.39.91-.47,2.44-1.74,3.64a5.06,5.06,0,0,1-6,.64l-9.16-5.26c-2.06-.6-2.61-2.56-1-3.71l8.54-6.27C74.87,61.46,77.68,62,78.37,63.6Z"/><path class="cls-2" d="M49.56,25.39l2.51,1.25a2.2,2.2,0,0,1,.39,3.68l-2.21,1.76a2.24,2.24,0,0,1-2.63.12l-3.9-2.61a1.61,1.61,0,0,1,.06-2.73L46,25.53A3.7,3.7,0,0,1,49.56,25.39Z"/><path class="cls-2" d="M56.8,44.38l3.43,5.22a3.36,3.36,0,0,1-.84,4.58l-9.17,6.27a2.93,2.93,0,0,1-4.09-.78l-.74-1a3.46,3.46,0,0,1-.61-2V51.75a3.35,3.35,0,0,1,1.15-2.53l6.47-5.51A2.93,2.93,0,0,1,56.8,44.38Z"/><path class="cls-2" d="M22.78,51.66v4.68a2.92,2.92,0,0,1-4.22,2.38L13.4,56.37a2.55,2.55,0,0,1,0-4.74l5.16-2.35A2.92,2.92,0,0,1,22.78,51.66Z"/><path class="cls-2" d="M18.81,35a3.16,3.16,0,0,1,.43-.39,86,86,0,0,0,12-10.92,11.53,11.53,0,0,0,2.06-3.08A2.11,2.11,0,0,0,33.44,19a2.2,2.2,0,0,0-2-1,10.82,10.82,0,0,0-6,1.91,38.41,38.41,0,0,0-7.16,6.33A27.44,27.44,0,0,0,13,33a9.72,9.72,0,0,0,.25,8.36,2.83,2.83,0,0,0,1.1,1.31,3,3,0,0,0,1.44.26,23.26,23.26,0,0,0,7.63-1.22,10.13,10.13,0,0,0,4.38-2.55,3.37,3.37,0,0,0,.94-1.77A1.78,1.78,0,0,0,28,35.64a2.66,2.66,0,0,0-1.91-.1,23.07,23.07,0,0,0-2.85.78,6.48,6.48,0,0,1-3.4.62c-.75-.16-1.51-.85-1.26-1.57A1.13,1.13,0,0,1,18.81,35Z"/><path class="cls-2" d="M28,60.36a1.87,1.87,0,0,1,1.72.31c.74.65.64,1.81.55,2.79a20.18,20.18,0,0,0-.08,3,2.88,2.88,0,0,0,.67,2,3.36,3.36,0,0,0,1.64.63,38.69,38.69,0,0,1,14,6.1,24.29,24.29,0,0,1,5.72,5,11.43,11.43,0,0,1,2.62,7,3.74,3.74,0,0,1-.36,1.78,1.82,1.82,0,0,1-1.43,1,2.79,2.79,0,0,1-1.72-.67,73.37,73.37,0,0,1-10.16-9,8,8,0,0,0-3-2.21c-1.57-.54-3.28-.06-4.92.22a20.39,20.39,0,0,1-7,0c-1.88-.33-4.52-1.21-5.26-3.21a11,11,0,0,1-.17-4,14.52,14.52,0,0,1,.9-4.23,12.22,12.22,0,0,1,5-6.08A4.89,4.89,0,0,1,28,60.36Z"/><circle class="cls-3" cx="29.13" cy="51.91" r="6.47"/><circle class="cls-4" cx="34.76" cy="46.28" r="4.78"/><circle class="cls-5" cx="36.45" cy="44.59" r="1.41"/><circle class="cls-3" cx="69.63" cy="51.91" r="6.47"/><circle class="cls-4" cx="64.01" cy="46.28" r="4.78"/><circle class="cls-5" cx="65.7" cy="44.59" r="1.41"/><path class="cls-6" d="M54.16,54.72a4.78,4.78,0,0,1-9.56,0"/></g></g></g></svg>