<svg xmlns="http://www.w3.org/2000/svg" viewBox="0 0 94 94"><defs><style>.cls-1{fill:#8cdef3;}.cls-2{fill:#47a74d;}.cls-3{fill:#feaec9;}.cls-4{fill:#232323;}.cls-5{fill:#fff;}.cls-6{fill:none;stroke:#232323;stroke-linecap:round;stroke-miterlimit:10;stroke-width:1.69px;}</style></defs><title>Earth</title><g id="Layer_2" data-name="Layer 2"><g id="Planet_Characters" data-name="Planet Characters"><g id="Earth"><path class="cls-1" d="M94,47A47,47,0,1,1,0,47c0-.49,0-1,0-1.48a47,47,0,0,1,88.25-21A46.86,46.86,0,0,1,94,47Z"/><path class="cls-2" d="M87.63,24.62a7.15,7.15,0,0,1,.05,2.65A10.6,10.6,0,0,1,85,32.2C76.49,42,62.55,45.1,52.83,53.65c-2.79,2.46-5.36,5.79-5,9.49.31,3.31,2.92,6.35,2.23,9.61-.47,2.27-2.4,3.88-4,5.55a25.12,25.12,0,0,0-6.85,14.89A48.64,48.64,0,0,1,10.51,76.48c-1.86-2.25-3.63-4.92-3.89-7.9a6.43,6.43,0,0,1,.06-2.1,7.11,7.11,0,0,1,1.05-1.69,35.91,35.91,0,0,1,2.47-3.27A40.15,40.15,0,0,1,23,51.47a38.87,38.87,0,0,1,7.05-2.71c6.67-1.86,13.71-2,20.47-3.47s13.67-4.76,17-10.86a7,7,0,0,0,.94-2.92c.12-3.12-3.09-5.42-6.17-6A13.63,13.63,0,0,0,51.82,28c-3.11,2.32-5.13,5.91-8.37,8.06a3.76,3.76,0,0,1-2.3.78c-1.75-.16-2.59-2.21-2.91-3.93A33.25,33.25,0,0,1,39,17.48c.22-.76.48-1.51.74-2.25a.11.11,0,0,0,0-.08.12.12,0,0,0,0-.05,32.77,32.77,0,0,1-4.45-2.38A23.54,23.54,0,0,1,31.39,9.6a19.71,19.71,0,0,1-2.06-2.41,21.7,21.7,0,0,1-1.77-2.87,47.55,47.55,0,0,1,57,14.34A15,15,0,0,1,87.63,24.62Z"/><path class="cls-2" d="M87.44,70.92A47,47,0,0,1,67,89.53c-.09-4.35.38-9.24,2.39-13.18a8.21,8.21,0,0,1,3.48-3.7,12.37,12.37,0,0,1,4.6-1Q82.47,71.29,87.44,70.92Z"/><path class="cls-2" d="M17,31c-.16.26-.34.52-.53.77C12.16,37.57,6.84,43,.08,45.52A42.84,42.84,0,0,1,2,33.37a48.56,48.56,0,0,1,2.2-5.86C4.44,27,6.68,22.06,7,22.17a23.8,23.8,0,0,1,8.6,4.67c1,.82,1.95,1.93,1.77,3.19A2.77,2.77,0,0,1,17,31Z"/><circle class="cls-3" cx="26.75" cy="48.41" r="6.47"/><circle class="cls-4" cx="32.38" cy="42.78" r="4.78"/><circle class="cls-5" cx="34.06" cy="41.09" r="1.41"/><circle class="cls-3" cx="67.25" cy="48.41" r="6.47"/><circle class="cls-4" cx="61.62" cy="42.78" r="4.78"/><circle class="cls-5" cx="63.31" cy="41.09" r="1.41"/><path class="cls-6" d="M51.78,51.22a4.78,4.78,0,0,1-9.56,0"/></g></g></g></svg>