<svg xmlns="http://www.w3.org/2000/svg" viewBox="0 0 94 94"><defs><style>.cls-1{fill:#f1c18f;}.cls-2{fill:#99582b;}.cls-3{fill:#e79a56;}.cls-4{fill:#feaec9;}.cls-5{fill:#232323;}.cls-6{fill:#fff;}.cls-7{fill:none;stroke:#232323;stroke-linecap:round;stroke-miterlimit:10;stroke-width:1.69px;}</style></defs><title>Jupiter</title><g id="Layer_2" data-name="Layer 2"><g id="Planet_Characters" data-name="Planet Characters"><g id="Jupiter"><path class="cls-1" d="M94,47v.23c0,.33,0,.67,0,1a47.84,47.84,0,0,1-.72,7.14c-.2,1.08-.43,2.15-.69,3.2q-.21.82-.45,1.65a46.43,46.43,0,0,1-3.27,8.2c-.28.54-.57,1.08-.87,1.61s-.67,1.18-1,1.75-.66,1-1,1.55c-.71,1.05-1.47,2.07-2.26,3.06a46.71,46.71,0,0,1-4.14,4.53c-.9.86-1.83,1.69-2.8,2.48h0a46,46,0,0,1-3.82,2.83l-.16.1a46.79,46.79,0,0,1-20.94,7.44h0A47.81,47.81,0,0,1,47,94h-.63A46.73,46.73,0,0,1,18.06,84c-1.21-1-2.38-2-3.49-3a46.6,46.6,0,0,1-7.45-9.16,45.8,45.8,0,0,1-4.59-9.63c-.08-.24-.16-.47-.23-.71h0c-.11-.34-.21-.67-.31-1s-.27-.94-.4-1.41l-.21-.83c-.09-.36-.18-.73-.26-1.1L.87,56.05a46.44,46.44,0,0,1-.76-5.83C0,49.16,0,48.08,0,47c0-.35,0-.7,0-1s0-.86.05-1.29c0-.26,0-.52,0-.77s0-.6.07-.9.06-.65.09-1,0-.45.07-.68A45.92,45.92,0,0,1,2.12,33c.31-1,.65-2,1-3q.78-2,1.74-4a45.23,45.23,0,0,1,2.59-4.55C8,20.79,8.5,20,9,19.29a48.27,48.27,0,0,1,3.45-4.21c.77-.82,1.55-1.61,2.37-2.37l.52-.48a50.3,50.3,0,0,1,4-3.26l1-.74c.58-.39,1.16-.77,1.75-1.14l0,0,.68-.42a47.12,47.12,0,0,1,7.06-3.46c.69-.27,1.4-.52,2.11-.76l.88-.28.69-.21,1-.28a45.81,45.81,0,0,1,4.57-1h0A44.2,44.2,0,0,1,43.8.11h0l1,0Q45.89,0,47,0c.92,0,1.83,0,2.73.08h0A46.82,46.82,0,0,1,80.15,13.69h0c.87.87,1.71,1.77,2.52,2.71l.07.08c.84,1,1.63,2,2.38,3a45.11,45.11,0,0,1,3,4.65c.08.14.15.28.22.42s.14.25.21.38c.28.51.54,1,.8,1.55l.45,1a45.41,45.41,0,0,1,2,5.35l.21.68c0,.12.07.25.11.37s.11.37.16.56c.15.52.28,1,.41,1.58.27,1.13.5,2.27.68,3.43l0,.22c.1.57.18,1.13.25,1.71A47.68,47.68,0,0,1,94,47Z"/><path class="cls-2" d="M94,47v.23A142.9,142.9,0,0,1,61,36C44.22,27.61,27.44,21,9,19.29a48.27,48.27,0,0,1,3.45-4.21C20.8,16.54,34.86,19.27,41,22c9,4,38,18,44,19a41.94,41.94,0,0,0,8.67.37A47.68,47.68,0,0,1,94,47Z"/><path class="cls-3" d="M93.42,39.66A141,141,0,0,1,63,29C47.39,21.19,31.78,14.9,14.86,12.71l.52-.48a50.3,50.3,0,0,1,4-3.26C27.54,10.51,38,12.75,43,15c9,4,38,18,44,19a35.39,35.39,0,0,0,5.3.43c.15.52.28,1,.41,1.58.27,1.13.5,2.27.68,3.43Z"/><path class="cls-3" d="M85.13,19.51A133.24,133.24,0,0,1,63,11,205.72,205.72,0,0,0,39.16.66,44.2,44.2,0,0,1,43.8.11h0l1,0Q45.89,0,47,0c.92,0,1.83,0,2.73.08h0C58.62,4.2,71.79,10.35,80.15,13.69h0c.87.87,1.71,1.77,2.52,2.71l.07.08C83.59,17.46,84.38,18.47,85.13,19.51Z"/><path class="cls-3" d="M94,48.22a47.84,47.84,0,0,1-.72,7.14A174.28,174.28,0,0,1,59,43C41.57,34.28,24.14,27.44,4.89,26.11a45.23,45.23,0,0,1,2.59-4.55C14.87,22.81,32,25.9,39,29c9,4,38,18,44,19A46.42,46.42,0,0,0,94,48.22Z"/><path class="cls-2" d="M93.26,55.36c-.2,1.08-.43,2.15-.69,3.2A144,144,0,0,1,58,47C40.35,38.17,22.69,31.27,3.15,30.07q.78-2,1.74-4C24.14,27.44,41.57,34.28,59,43A174.28,174.28,0,0,0,93.26,55.36Z"/><path class="cls-2" d="M92.14,33.87A138.13,138.13,0,0,1,65,24C50.49,16.74,36,10.79,20.42,8.23c.58-.39,1.16-.77,1.75-1.14l0,0,.68-.42a47.12,47.12,0,0,1,7.06-3.46c.69-.27,1.4-.52,2.11-.76l.88-.28A80.24,80.24,0,0,1,46,6c8.34,3.7,33.83,16,42.31,18.58.08.12.14.25.21.38.28.51.54,1,.8,1.55l.45,1a45.41,45.41,0,0,1,2,5.35l.21.68C92.07,33.62,92.1,33.75,92.14,33.87Z"/><path class="cls-2" d="M92.12,60.21a46.43,46.43,0,0,1-3.27,8.2c-.28.54-.57,1.08-.87,1.61A142.83,142.83,0,0,1,56,59C38.08,50,20.16,43.06.27,42c0-.23,0-.45.07-.68A45.92,45.92,0,0,1,2.12,33C4,33.31,28.35,37.16,37,41c9,4,38,18,44,19A47,47,0,0,0,92.12,60.21Z"/><path class="cls-3" d="M88,70c-.63,1.13-1.31,2.23-2,3.3A140.22,140.22,0,0,1,57,63C39,54,21,47,1,46L0,46c0-1.33.11-2.64.25-3.93,19.89,1,37.81,8,55.73,17A142.83,142.83,0,0,0,88,70Z"/><path class="cls-2" d="M83.69,76.38a46.71,46.71,0,0,1-4.14,4.53A134.91,134.91,0,0,1,56,72C38.26,63.13,20.52,57.18.87,56.05a46.44,46.44,0,0,1-.76-5.83L1,50s26,4,35,8S74,75,80,76A32.49,32.49,0,0,0,83.69,76.38Z"/><path class="cls-2" d="M76.74,83.39a46,46,0,0,1-3.82,2.83c-.88-.28-1.78-.58-2.69-.9A124,124,0,0,1,55,79C38.06,70.53,21.13,63.83,2.53,62.24c-.08-.24-.16-.47-.23-.71s-.22-.67-.32-1-.27-.94-.4-1.41l-.21-.83c-.09-.36-.18-.73-.26-1.1C6.17,58,27.11,61.5,35,65,43.16,68.62,67.74,80.46,76.74,83.39Z"/><path class="cls-3" d="M72.76,86.32a46,46,0,0,1-10.83,5.26C59.31,90.51,56.64,89.32,54,88,38.78,80.39,23.55,74.21,7.12,71.87a45.8,45.8,0,0,1-4.59-9.63C21.13,63.83,38.06,70.53,55,79a124,124,0,0,0,15.23,6.32C71.13,85.68,72,86,72.76,86.32Z"/><path class="cls-3" d="M51.81,93.76A47.81,47.81,0,0,1,47,94h-.63c-.95-.42-1.91-.86-2.87-1.34C35.25,88.52,27,85.19,18.06,84c-1.21-1-2.38-2-3.49-3,1.65.26,13.9,2.23,18.34,4.21C36.46,86.82,45.92,91.34,51.81,93.76Z"/><circle class="cls-4" cx="26.75" cy="48.41" r="6.47"/><circle class="cls-5" cx="32.38" cy="42.78" r="4.78"/><circle class="cls-6" cx="34.06" cy="41.09" r="1.41"/><circle class="cls-4" cx="67.25" cy="48.41" r="6.47"/><circle class="cls-5" cx="61.62" cy="42.78" r="4.78"/><circle class="cls-6" cx="63.31" cy="41.09" r="1.41"/><path class="cls-7" d="M51.78,51.22a4.78,4.78,0,0,1-9.56,0"/></g></g></g></svg>