<svg xmlns="http://www.w3.org/2000/svg" viewBox="0 0 94 94"><defs><style>.cls-1{fill:#ef5d44;}.cls-2{fill:#cc2727;}.cls-3{fill:#b54f39;}.cls-4{fill:#feaec9;}.cls-5{fill:#232323;}.cls-6{fill:#fff;}.cls-7{fill:none;stroke:#232323;stroke-linecap:round;stroke-miterlimit:10;stroke-width:1.69px;}</style></defs><title>Mars</title><g id="Layer_2" data-name="Layer 2"><g id="Planet_Characters" data-name="Planet Characters"><g id="Mars"><path class="cls-1" d="M94,47a46.76,46.76,0,0,1-1.79,12.88,46.21,46.21,0,0,1-4.75,11.05A47,47,0,0,1,6.1,70.19c-.44-.77-.85-1.55-1.24-2.34A46.89,46.89,0,0,1,0,47c0-.49,0-1,0-1.48A47,47,0,0,1,79.18,12.75,46.85,46.85,0,0,1,94,47Z"/><path class="cls-2" d="M79.18,12.75C66.58,19.17,61.53,13.53,60,12c-2-2-10-9-25,2-7.92,5.8-15.55,3.26-21-.46a47,47,0,0,1,65.18-.79Z"/><circle class="cls-2" cx="44" cy="32" r="8"/><circle class="cls-2" cx="76" cy="41" r="6"/><circle class="cls-3" cx="23" cy="54" r="4"/><path class="cls-2" d="M92.21,59.88a46.21,46.21,0,0,1-4.75,11.05A47,47,0,0,1,6.1,70.19c-.44-.77-.85-1.55-1.24-2.34,5.86.3,13.61,1.62,18.14,6.15,8,8,16-1,16-3s3-21,11-18,5,6,4,8-5,9,4,12,10,8,15-6C76.39,57.5,86.24,57.21,92.21,59.88Z"/><circle class="cls-4" cx="26.75" cy="48.41" r="6.47"/><circle class="cls-5" cx="32.38" cy="42.78" r="4.78"/><circle class="cls-6" cx="34.06" cy="41.09" r="1.41"/><circle class="cls-4" cx="67.25" cy="48.41" r="6.47"/><circle class="cls-5" cx="61.62" cy="42.78" r="4.78"/><circle class="cls-6" cx="63.31" cy="41.09" r="1.41"/><path class="cls-7" d="M51.78,51.22a4.78,4.78,0,0,1-9.56,0"/></g></g></g></svg>