<svg xmlns="http://www.w3.org/2000/svg" viewBox="0 0 94 94"><defs><style>.cls-1{fill:#c68e39;}.cls-2{fill:#ac6122;}.cls-3{fill:#feaec9;}.cls-4{fill:#232323;}.cls-5{fill:#fff;}.cls-6{fill:none;stroke:#232323;stroke-linecap:round;stroke-miterlimit:10;stroke-width:1.69px;}</style></defs><title>Mercury</title><g id="Layer_2" data-name="Layer 2"><g id="Planet_Characters" data-name="Planet Characters"><g id="Mercury"><path class="cls-1" d="M94,47c0,.73,0,1.45-.06,2.17a46.42,46.42,0,0,1-4,16.92l-.09.19c-.25.55-.5,1.1-.78,1.64s-.61,1.2-.94,1.78c0,.09-.09.17-.14.26-.17.33-.36.65-.55,1-.71,1.21-1.48,2.38-2.3,3.51a46.58,46.58,0,0,1-3.11,3.87l0,0c-.78.88-1.6,1.72-2.45,2.53a44.45,44.45,0,0,1-4,3.42l-.35.27c-1,.78-2.1,1.52-3.2,2.21A43.89,43.89,0,0,1,67,89.56l-.74.34a46.57,46.57,0,0,1-11.08,3.4A47.6,47.6,0,0,1,47,94a46.95,46.95,0,0,1-23.27-6.15,50.15,50.15,0,0,1-4.82-3.18c-.25-.18-.49-.37-.73-.56l-1-.8c-.65-.53-1.3-1.09-1.92-1.67L15,81.41c-.43-.4-.86-.81-1.27-1.22l-.07-.07A47,47,0,0,1,6.1,70.19c-.73-1.29-1.4-2.61-2-4-.11-.22-.2-.44-.3-.67-.43-1-.81-2-1.16-3l-.06-.17A46.91,46.91,0,0,1,0,48.62v0a1.77,1.77,0,0,1,0-.23Q0,47.68,0,47c0-.49,0-1,0-1.48,0-.94.09-1.88.18-2.8v-.08c0-.06,0-.12,0-.18h0A46.16,46.16,0,0,1,4.88,26.16c.08-.17.16-.34.25-.51.38-.76.79-1.5,1.21-2.23h0a1.09,1.09,0,0,1,.08-.15c.23-.39.46-.77.7-1.15A46.43,46.43,0,0,1,17.46,10.46l.25-.21a43.61,43.61,0,0,1,4.42-3.13c.18-.12.37-.23.56-.34a44.44,44.44,0,0,1,4.92-2.61,47.08,47.08,0,0,1,45.92,4q.56.38,1.11.78h0c.65.48,1.28,1,1.9,1.48l.58.48a44.68,44.68,0,0,1,5.58,5.51A46.09,46.09,0,0,1,88,24c.1.16.19.32.28.49.19.35.37.69.55,1.05.56,1.07,1.07,2.16,1.54,3.28a47.24,47.24,0,0,1,3,10.27.34.34,0,0,1,0,.1h0l.27,2.61L94,44.92C94,45.61,94,46.31,94,47Z"/><path class="cls-2" d="M29,76,23.73,87.85a50.15,50.15,0,0,1-4.82-3.18c-.25-.18-.49-.37-.73-.56l-1-.8c-.65-.53-1.3-1.09-1.92-1.67L15,81.41c-.43-.4-.86-.81-1.27-1.22l-.07-.07L17,74,14,64V53L9,48l11,6,1,11Z"/><path class="cls-2" d="M66.23,89.9a46.57,46.57,0,0,1-11.08,3.4L50,83V73L38,63,37,50l-8-1L19,43l17,2,8,5V61l12,7,3,13Z"/><path class="cls-2" d="M89.09,67.92c-.29.6-.61,1.2-.94,1.78,0,.09-.09.17-.14.26-.17.33-.36.65-.55,1-.71,1.21-1.48,2.38-2.3,3.51L71,65,70,39H49L36,23,17,22l16-5,12,7,7,8,20,2,9,17,2,13Z"/><path class="cls-2" d="M94,47c0,.73,0,1.45-.06,2.17L86,47,79,32l6,2,3,7,5.63.8L94,44.92C94,45.61,94,46.31,94,47Z"/><path class="cls-2" d="M88,24H79L69,22l-8,2L50,20l12,2,7-3,11,2,2.72-4.54A46.09,46.09,0,0,1,88,24Z"/><circle class="cls-3" cx="26.75" cy="48.41" r="6.47"/><circle class="cls-4" cx="32.38" cy="42.78" r="4.78"/><circle class="cls-5" cx="34.06" cy="41.09" r="1.41"/><circle class="cls-3" cx="67.25" cy="48.41" r="6.47"/><circle class="cls-4" cx="61.62" cy="42.78" r="4.78"/><circle class="cls-5" cx="63.31" cy="41.09" r="1.41"/><path class="cls-6" d="M51.78,51.22a4.78,4.78,0,0,1-9.56,0"/></g></g></g></svg>