<svg xmlns="http://www.w3.org/2000/svg" viewBox="0 0 94 94"><defs><style>.cls-1{fill:#e7e5e6;}.cls-2{fill:#bbb5bf;}.cls-3{fill:#feaec9;}.cls-4{fill:#232323;}.cls-5{fill:#fff;}.cls-6{fill:none;stroke:#232323;stroke-linecap:round;stroke-miterlimit:10;stroke-width:1.69px;}</style></defs><title>Moon</title><g id="Layer_2" data-name="Layer 2"><g id="Planet_Characters" data-name="Planet Characters"><g id="Moon"><path class="cls-1" d="M94,47a46.75,46.75,0,0,1-4,19.09l-.09.19c-.07.17-.15.34-.23.5-.46,1-1,2-1.49,2.92,0,.09-.09.17-.14.26-.17.33-.36.65-.55,1a46.8,46.8,0,0,1-5.41,7.38l0,0c-.78.88-1.6,1.72-2.45,2.53a44.45,44.45,0,0,1-4,3.42l-.35.27c-1,.78-2.1,1.52-3.2,2.21A43.89,43.89,0,0,1,67,89.56l-.18.08a47,47,0,0,1-47.88-5c-.25-.18-.49-.37-.73-.56l-1-.8c-.65-.53-1.3-1.09-1.92-1.67L15,81.41c-.43-.4-.86-.81-1.27-1.22a47.12,47.12,0,0,1-7.63-10c-.73-1.29-1.4-2.61-2-4-.11-.22-.2-.44-.3-.67-.43-1-.81-2-1.16-3l-.06-.17A46.91,46.91,0,0,1,0,48.62v0a1.77,1.77,0,0,1,0-.23Q0,47.68,0,47c0-.49,0-1,0-1.48,0-.94.09-1.88.18-2.8v-.08c0-.06,0-.12,0-.18h0A46.16,46.16,0,0,1,4.88,26.16c.08-.17.16-.34.25-.51s0-.11.08-.16c.36-.7.74-1.39,1.13-2.07h0a1.09,1.09,0,0,1,.08-.15c.23-.39.46-.77.7-1.15A46.43,46.43,0,0,1,17.46,10.46l.25-.21a41.14,41.14,0,0,1,3.51-2.54c.3-.21.6-.4.91-.59s.37-.23.56-.34a44.44,44.44,0,0,1,4.92-2.61,47.08,47.08,0,0,1,45.92,4q.56.38,1.11.78h0c.65.48,1.28,1,1.9,1.48l.58.48A46.86,46.86,0,0,1,88.27,24.49c.19.35.37.69.55,1.05.56,1.07,1.07,2.16,1.54,3.28a47.24,47.24,0,0,1,3,10.27.34.34,0,0,1,0,.1h0L94,44.92C94,45.61,94,46.31,94,47Z"/><path class="cls-2" d="M30,20A13,13,0,0,1,5.21,25.49c.36-.7.74-1.39,1.13-2.07h0a1.09,1.09,0,0,1,.08-.15c.23-.39.46-.77.7-1.15A46.43,46.43,0,0,1,17.46,10.46l.25-.21a41.14,41.14,0,0,1,3.51-2.54A13,13,0,0,1,30,20Z"/><circle class="cls-2" cx="59" cy="26" r="13"/><circle class="cls-2" cx="39" cy="44" r="5"/><circle class="cls-2" cx="26" cy="68" r="9"/><path class="cls-2" d="M89.64,66.78c-.46,1-1,2-1.49,2.92,0,.09-.09.17-.14.26-.17.33-.36.65-.55,1a46.8,46.8,0,0,1-5.41,7.38l0,0c-.78.88-1.6,1.72-2.45,2.53a44.45,44.45,0,0,1-4,3.42l-.35.27c-1,.78-2.1,1.52-3.2,2.21A43.89,43.89,0,0,1,67,89.56l-.18.08A19.5,19.5,0,1,1,89.64,66.78Z"/><circle class="cls-3" cx="26.75" cy="48.41" r="6.47"/><circle class="cls-4" cx="32.38" cy="42.78" r="4.78"/><circle class="cls-5" cx="34.06" cy="41.09" r="1.41"/><circle class="cls-3" cx="67.25" cy="48.41" r="6.47"/><circle class="cls-4" cx="61.62" cy="42.78" r="4.78"/><circle class="cls-5" cx="63.31" cy="41.09" r="1.41"/><path class="cls-6" d="M51.78,51.22a4.78,4.78,0,0,1-9.56,0"/></g></g></g></svg>