<svg xmlns="http://www.w3.org/2000/svg" viewBox="0 0 94 94"><defs><style>.cls-1{fill:#108cec;}.cls-2{fill:#156cb1;}.cls-3{fill:#feaec9;}.cls-4{fill:#232323;}.cls-5{fill:#fff;}.cls-6{fill:none;stroke:#232323;stroke-linecap:round;stroke-miterlimit:10;stroke-width:1.69px;}</style></defs><title>Neptune</title><g id="Layer_2" data-name="Layer 2"><g id="Planet_Characters" data-name="Planet Characters"><g id="Neptune"><path class="cls-1" d="M94,47a46.7,46.7,0,0,1-3.52,17.86h0l-.18.44c-.11.26-.22.52-.34.78l-.09.19c-.52,1.17-1.09,2.31-1.72,3.42,0,.09-.09.17-.14.26-.17.33-.36.65-.55,1s-.41.68-.62,1a1.74,1.74,0,0,1-.11.18,46.54,46.54,0,0,1-4.68,6.19l0,0c-.78.88-1.6,1.72-2.45,2.53a44.45,44.45,0,0,1-4,3.42l-.35.27c-1,.78-2.1,1.52-3.2,2.21A43.89,43.89,0,0,1,67,89.56a47,47,0,0,1-48.06-4.89c-.25-.18-.49-.37-.73-.56l-1-.8c-.65-.53-1.3-1.09-1.92-1.67L15,81.41c-.43-.4-.86-.81-1.27-1.22a46.64,46.64,0,0,1-5.24-6.25l-.18-.26A41,41,0,0,1,6.1,70.19c-.24-.42-.47-.84-.69-1.27s-.54-1-.79-1.57c-.18-.37-.35-.75-.52-1.13-.11-.22-.2-.44-.3-.67-.43-1-.81-2-1.16-3l-.06-.17A46.91,46.91,0,0,1,0,48.62v-.4c0-.41,0-.81,0-1.22s0-1,0-1.48c0-.94.09-1.88.18-2.8v-.08a.41.41,0,0,0,0-.11s0-.05,0-.07h0c0-.31.06-.62.1-.92A45.82,45.82,0,0,1,4.88,26.16c.08-.17.16-.34.25-.51.38-.76.79-1.5,1.21-2.23h0a1.09,1.09,0,0,1,.08-.15c.23-.39.46-.77.7-1.15.69-1.11,1.43-2.2,2.21-3.24h0l0,0,0,0v0a46,46,0,0,1,4.89-5.54c.17-.16.33-.32.5-.46.86-.82,1.74-1.59,2.66-2.33l.25-.21a43.61,43.61,0,0,1,4.42-3.13c.18-.12.37-.23.56-.34a44.44,44.44,0,0,1,4.92-2.61,47.08,47.08,0,0,1,45.92,4q.56.38,1.11.78h0c.65.48,1.28,1,1.9,1.48l.58.48c.58.48,1.14,1,1.69,1.46l.57.54a46.5,46.5,0,0,1,3.41,3.61l.17.2a47.17,47.17,0,0,1,5.29,7.73c.19.35.37.69.55,1.05.56,1.07,1.07,2.16,1.54,3.28A46.75,46.75,0,0,1,92.94,37c0,.2.09.4.12.6.11.48.2,1,.28,1.45a.34.34,0,0,1,0,.1h0l.42,4.05v.14L94,44.92C94,45.61,94,46.31,94,47Z"/><path class="cls-2" d="M83,16.76c-11.37-.44-21.93,6.81-33.36,6.76-6.59,0-12.85-2.49-19.24-4A48.33,48.33,0,0,0,10,18.78c-.26,0-.48.08-.69.1h0l0,0,0,0,5.4-6A21.41,21.41,0,0,1,17,12.4c5.83-.69,11.73.61,17.23,2.55,5,1.77,9.95,4.12,15.3,4.39C59,19.83,67.43,13.87,76.79,13a13.4,13.4,0,0,1,2.61,0,46.5,46.5,0,0,1,3.41,3.61Z"/><path class="cls-2" d="M93.78,43.24c-5.25.47-10.28,2.51-15.42,3.8a46.09,46.09,0,0,1-24.06-.11c-5.11-1.51-10-4.09-15.38-4.18-5.17-.08-10,2.17-14.93,3.65a64,64,0,0,1-24,2v-.22c0-.41,0-.81,0-1.22s0-1,0-1.48c0-.94.09-1.88.18-2.8v-.08a.41.41,0,0,0,0-.11h0c6.58,1.82,13.64.38,20.22-1.42s13.25-4,20.09-3.56c9.61.57,18.35,6.16,28,6.3,8.51.14,16.32-4,24.53-6.22.11.48.2,1,.28,1.45a.34.34,0,0,1,0,.1h0Z"/><path class="cls-2" d="M90.3,65.31c-.11.26-.22.52-.34.78l-.09.19c-.52,1.17-1.09,2.31-1.72,3.42,0,.09-.09.17-.14.26-.17.33-.36.65-.55,1s-.41.68-.62,1h-.77c-4,0-7.75,1.47-11.6,2.39a51.67,51.67,0,0,1-23.24-.13c-7.06-1.57-14-4.37-21.24-4-6.12.36-11.85,3-17.94,3.66a16.31,16.31,0,0,1-3.56,0l-.18-.26A41,41,0,0,1,6.1,70.19c-.24-.42-.47-.84-.69-1.27l.18,0c4.05.74,8.26.17,12.24-.67,5.28-1.11,10.54-2.72,16-2.54,9,.32,17,5.5,25.89,6.49,7.85.88,15.67-1.57,22.94-4.49A32.93,32.93,0,0,1,90.3,65.31Z"/><circle class="cls-3" cx="26.75" cy="48.41" r="6.47"/><circle class="cls-4" cx="32.38" cy="42.78" r="4.78"/><circle class="cls-5" cx="34.06" cy="41.09" r="1.41"/><circle class="cls-3" cx="67.25" cy="48.41" r="6.47"/><circle class="cls-4" cx="61.62" cy="42.78" r="4.78"/><circle class="cls-5" cx="63.31" cy="41.09" r="1.41"/><path class="cls-6" d="M51.78,51.22a4.78,4.78,0,0,1-9.56,0"/></g></g></g></svg>