<svg xmlns="http://www.w3.org/2000/svg" viewBox="0 0 94 94"><defs><style>.cls-1{fill:#e5cd9d;}.cls-2{fill:#cab894;}.cls-3{fill:#feaec9;}.cls-4{fill:#232323;}.cls-5{fill:#fff;}.cls-6{fill:none;stroke:#232323;stroke-linecap:round;stroke-miterlimit:10;stroke-width:1.69px;}</style></defs><title>Pluto</title><g id="Layer_2" data-name="Layer 2"><g id="Planet_Characters" data-name="Planet Characters"><g id="Pluto"><path class="cls-1" d="M94,47A46.95,46.95,0,0,1,47,94c-.8,0-1.6,0-2.39-.06A47,47,0,1,1,94,47Z"/><circle class="cls-2" cx="50" cy="17" r="10"/><circle class="cls-2" cx="19" cy="33" r="7"/><circle class="cls-2" cx="14" cy="55" r="3"/><circle class="cls-2" cx="74" cy="24" r="6"/><path class="cls-2" d="M90,65c0,.36,0,.71,0,1.06A47,47,0,0,1,47,94c-.8,0-1.6,0-2.39-.06C44.61,93.94,30,65,29,62,24.81,49.43,39.75,38,53,38a23.78,23.78,0,0,1,11.67,3c.44,0,.88,0,1.33,0A24,24,0,0,1,90,65Z"/><circle class="cls-3" cx="26.75" cy="48.41" r="6.47"/><circle class="cls-4" cx="32.38" cy="42.78" r="4.78"/><circle class="cls-5" cx="34.06" cy="41.09" r="1.41"/><circle class="cls-3" cx="67.25" cy="48.41" r="6.47"/><circle class="cls-4" cx="61.62" cy="42.78" r="4.78"/><circle class="cls-5" cx="63.31" cy="41.09" r="1.41"/><path class="cls-6" d="M51.78,51.22a4.78,4.78,0,0,1-9.56,0"/></g></g></g></svg>