<svg xmlns="http://www.w3.org/2000/svg" viewBox="0 0 151.03 94"><defs><style>.cls-1{fill:#fdc72f;}.cls-2{fill:#e39f30;}.cls-3{fill:#feaec9;}.cls-4{fill:#232323;}.cls-5{fill:#fff;}.cls-6{fill:none;stroke:#232323;stroke-linecap:round;stroke-miterlimit:10;stroke-width:1.69px;}.cls-7{fill:#ffcb88;}.cls-8{fill:#f78c26;}</style></defs><title>Saturn</title><g id="Layer_2" data-name="Layer 2"><g id="Planet_Characters" data-name="Planet Characters"><g id="Saturn"><path class="cls-1" d="M119.92,47a47,47,0,1,1-94,0c0-.49,0-1,0-1.48a47,47,0,0,1,94,1.48Z"/><path class="cls-2" d="M104.36,12c-6.74-.33-13.52-.42-20.1,1-3,.67-5.93,1.66-9,1.79-3.49.14-6.91-.84-10.33-1.51A90.28,90.28,0,0,0,45.72,12c-.51,0-2.39.18-4.3.28a42.93,42.93,0,0,1,5.5-4.31,33.13,33.13,0,0,1,4.77.31c7.94,1,15.75,3.78,23.75,3.27,5.63-.36,11-2.32,16.63-3.09A54.15,54.15,0,0,1,99.27,8a44.51,44.51,0,0,1,3.59,2.67,4.32,4.32,0,0,1,.42.35C103.64,11.32,104,11.63,104.36,12Z"/><path class="cls-2" d="M110.44,75.46a42.17,42.17,0,0,1-2.79,3.34c-3-.16-6-.23-9-.09-7.64.37-15.16,2.16-22.81,2.44-12.52.44-25.08-3.15-37.47-2.49q-1.45-1.57-2.74-3.28l.88-.15A32.25,32.25,0,0,1,42.6,75c10.25.43,20.26,3.7,30.51,3.54,12.18-.18,24.24-5.2,36.27-3.25C109.73,75.31,110.09,75.37,110.44,75.46Z"/><path class="cls-2" d="M115.55,26.93c-7.34,1.61-14.81,2.85-22.22,1.82-5.53-.78-10.88-2.81-16.47-3-6.81-.28-13.42,2.16-20.2,2.88-8.56.91-17.13-.92-25.54-2.84.63-1.25,1.32-2.46,2.06-3.64.49-.79,1-1.56,1.55-2.32,1.49.79,2.9,1.89,4.39,2.69,3.62,2,7.94,2.17,12,1.69s8-1.62,12.11-2.25c8.81-1.37,17.81-.33,26.65.88,4.65.64,9.34,1.32,14,1a24.87,24.87,0,0,0,8.71-2.13c.36.55.7,1.11,1,1.67.22.37.44.76.65,1.14C114.75,25.29,115.17,26.1,115.55,26.93Z"/><path class="cls-2" d="M118.93,57.23c-.21,1-.46,1.94-.74,2.89s-.6,2-1,2.94a72.1,72.1,0,0,1-19.34.69c-6.47-.78-12.73-2.81-19.27-3-.89,0-1.78,0-2.67,0C68.92,61,62,63,55,63.6c-8.93.81-17.88-.55-26.69-2.22a46.22,46.22,0,0,1-1.73-7.48c2.87.5,5.26,2.38,7.9,3.59,4.24,1.95,9.29,2.17,14.07,1.69S58,57.56,62.72,56.93c8.12-1.08,16.37-.66,24.56.15h0c2.21.23,4.4.47,6.59.73,5.44.64,10.92,1.33,16.39,1A34.17,34.17,0,0,0,118.93,57.23Z"/><path class="cls-2" d="M119.79,42.13c-1.94,1.25-4.1,2.51-6.45,3.77-7.4-.81-14.85-1.07-22.08.53a72.83,72.83,0,0,1-28.41.3c-11-2-22.36-.66-33.44,1-1.11.16-2.24.34-3.34.6,0-.42,0-.85,0-1.28s0-1,0-1.48,0-.92.07-1.38c.1-1.59.27-3.15.52-4.69,12.72,2,26-4.6,38.87-2.62,9.26,1.42,18.75,2.36,28,.72,8.44-1.5,17.26-2.64,25.5-.43A43.56,43.56,0,0,1,119.79,42.13Z"/><circle class="cls-3" cx="52.67" cy="48.49" r="6.47"/><circle class="cls-4" cx="58.3" cy="42.86" r="4.78"/><circle class="cls-5" cx="59.99" cy="41.17" r="1.41"/><circle class="cls-3" cx="93.17" cy="48.49" r="6.47"/><circle class="cls-4" cx="87.55" cy="42.86" r="4.78"/><circle class="cls-5" cx="89.24" cy="41.17" r="1.41"/><path class="cls-6" d="M77.71,51.3a4.79,4.79,0,0,1-9.57,0"/><path class="cls-7" d="M150.56,27.33c-1.45-5.33-6.13-9.44-13.17-12.22a.09.09,0,0,0-.06,0C128.86,11.74,117,10.32,103.28,11a46.34,46.34,0,0,1,6.65,6.85,46.85,46.85,0,0,1,3.74,5.48c9.89-.24,16.44,1.41,17.54,5.06s-3.3,8.52-11.42,13.72c-9.64,6.18-24.56,12.76-41.82,18-18.29,5.55-35.22,8.39-46.77,8.29-8.53-.06-14.11-1.72-15.13-5.06s2.83-8,10.11-12.87c-.09-1.15-.13-2.32-.13-3.49,0-.49,0-1,0-1.48s0-.92.07-1.38A46.68,46.68,0,0,1,28.3,32.61C8.82,43.73-2.49,57.06.46,68c.08.31.18.62.29.92s.22.6.35.9.18.41.29.61.1.23.16.34.22.4.35.6a1.06,1.06,0,0,0,.12.2,6.49,6.49,0,0,0,.36.55,3.19,3.19,0,0,0,.31.44,1.15,1.15,0,0,0,.14.19,6.39,6.39,0,0,0,.47.59c.12.15.24.29.38.44l.17.19c.21.22.43.45.65.66l.77.71c.21.18.43.37.66.55,7.48,6.05,21.45,9,38.66,8.55a170.53,170.53,0,0,0,39.23-6.07,175.58,175.58,0,0,0,32.09-12C139.5,54.58,153.84,39.45,150.56,27.33Z"/><path class="cls-8" d="M147.05,26c-1.1-4.68-4.48-8.32-9.66-10.89a.09.09,0,0,0-.06,0c-7.89-3.93-20-5.4-34.47-4.41a4.32,4.32,0,0,1,.42.35,46.34,46.34,0,0,1,6.65,6.85c15.16,0,26.48,3.09,28.12,9.13,1.54,5.63-6.05,13-18,20.38-11.39,7-26.76,14.08-42,19.62A108,108,0,0,1,33.8,72.86C19.26,71.74,9.05,67.73,9.05,64c0-4.2,6.27-12,17.09-19.86A46.68,46.68,0,0,1,28.3,32.61C8.82,43.73-2.49,57.06.46,68c.08.31.18.62.29.92s.22.6.35.9.18.41.29.61.1.23.16.34.22.4.35.6a1.06,1.06,0,0,0,.12.2,6.49,6.49,0,0,0,.36.55,3.19,3.19,0,0,0,.31.44,1.15,1.15,0,0,0,.14.19,6.39,6.39,0,0,0,.47.59c.12.15.24.29.38.44l.17.19c.21.22.43.45.65.66l.77.71c.21.18.43.37.66.55,7.28,5.75,20.69,8.4,37.2,7.39A153.89,153.89,0,0,0,83.05,75a237.43,237.43,0,0,0,35.14-14.88C138.29,49.32,149.73,37.41,147.05,26Z"/></g></g></g></svg>