<svg xmlns="http://www.w3.org/2000/svg" viewBox="0 0 122.08 122.08"><defs><style>.cls-1{fill:#fa8d28;}.cls-2{fill:#f4be28;}.cls-3{fill:#feaec9;}.cls-4{fill:#232323;}.cls-5{fill:#fff;}.cls-6{fill:none;stroke:#232323;stroke-linecap:round;stroke-miterlimit:10;stroke-width:1.69px;}</style></defs><title>Sun</title><g id="Layer_2" data-name="Layer 2"><g id="Planet_Characters" data-name="Planet Characters"><g id="Sun"><path class="cls-1" d="M122.08,61c-10.08,7-11.51,13.74-4.8,23.76-11.86,2.17-15.59,7.66-13.08,19.4-11.74-2.51-17.23,1.22-19.4,13.08-10-6.71-16.72-5.28-23.76,4.8-7-10.08-13.74-11.51-23.76-4.8-2.17-11.86-7.66-15.59-19.4-13.08C20.39,92.46,16.66,87,4.8,84.8,11.51,74.78,10.08,68.08,0,61,10.08,54,11.51,47.3,4.8,37.28c11.86-2.17,15.59-7.66,13.08-19.4,11.74,2.51,17.23-1.22,19.4-13.08C47.3,11.51,54,10.08,61,0c7,10.08,13.74,11.51,23.76,4.8C87,16.66,92.46,20.39,104.2,17.88c-2.51,11.74,1.22,17.23,13.08,19.4C110.57,47.3,112,54,122.08,61Z"/><circle class="cls-2" cx="61.04" cy="61.04" r="47"/><circle class="cls-3" cx="40.79" cy="62.45" r="6.47"/><circle class="cls-4" cx="46.42" cy="56.82" r="4.78"/><circle class="cls-5" cx="48.1" cy="55.13" r="1.41"/><circle class="cls-3" cx="81.29" cy="62.45" r="6.47"/><circle class="cls-4" cx="75.66" cy="56.82" r="4.78"/><circle class="cls-5" cx="77.35" cy="55.13" r="1.41"/><path class="cls-6" d="M65.82,65.26a4.78,4.78,0,0,1-9.56,0"/></g></g></g></svg>