<svg xmlns="http://www.w3.org/2000/svg" viewBox="0 0 145.47 94"><defs><style>.cls-1{fill:#7ae9fa;}.cls-2{fill:#5abac6;}.cls-3{fill:#368aac;}.cls-4{fill:#59c9ef;}.cls-5{fill:#feaec9;}.cls-6{fill:#232323;}.cls-7{fill:#fff;}.cls-8{fill:none;stroke:#232323;stroke-linecap:round;stroke-miterlimit:10;stroke-width:1.69px;}</style></defs><title>Uranus</title><g id="Layer_2" data-name="Layer 2"><g id="Planet_Characters" data-name="Planet Characters"><g id="Uranus"><path class="cls-1" d="M118.44,47a47.47,47.47,0,0,1-.35,5.75,46,46,0,0,1-1.8,8.32c-.4,1.29-.86,2.55-1.37,3.79h0l-.18.44c-.11.26-.22.52-.34.78l-.09.19c-.52,1.17-1.09,2.31-1.72,3.42,0,.09-.09.17-.14.26-.14.27-.29.54-.45.8l-.1.17c-.2.34-.41.68-.62,1a1.74,1.74,0,0,1-.11.18,46.54,46.54,0,0,1-4.68,6.19l0,0c-.78.88-1.6,1.72-2.45,2.53a44.45,44.45,0,0,1-4,3.42l-.35.27c-1,.78-2.1,1.52-3.2,2.21a43.89,43.89,0,0,1-5.08,2.79,47,47,0,0,1-48.06-4.89c-.25-.18-.49-.37-.73-.56l-1-.8c-.65-.53-1.3-1.09-1.92-1.67l-.25-.23c-.43-.4-.86-.81-1.27-1.22a46.64,46.64,0,0,1-5.24-6.25l-.18-.26c-.43-.61-.85-1.24-1.24-1.87s-.66-1.07-1-1.62-.47-.84-.69-1.27-.54-1-.79-1.57l-.27-.58-.25-.55c-.11-.22-.2-.44-.3-.67-.43-1-.81-2-1.16-3L27,62.4a46.91,46.91,0,0,1-2.55-13.78v-.4c0-.28,0-.55,0-.83s0-.26,0-.39c0-.49,0-1,0-1.48,0-.94.09-1.88.18-2.8v-.08a.41.41,0,0,0,0-.11s0-.05,0-.07h0c0-.31.06-.62.1-.92.13-1.14.3-2.26.51-3.37a45.65,45.65,0,0,1,4.05-12c.08-.17.16-.34.25-.51.32-.65.67-1.28,1-1.91l.18-.32h0a1.09,1.09,0,0,1,.08-.15c.23-.39.46-.77.7-1.15.69-1.11,1.43-2.2,2.21-3.24h0l0,0,0,0v0c.21-.28.42-.55.64-.82a45.28,45.28,0,0,1,4.25-4.72c.17-.16.33-.32.5-.46C40.1,12,41,11.2,41.9,10.46l.25-.21a43.61,43.61,0,0,1,4.42-3.13c.18-.12.37-.23.56-.34a44.44,44.44,0,0,1,4.92-2.61A47.08,47.08,0,0,1,98,8.2q.56.38,1.11.78h0c.65.48,1.28,1,1.9,1.48l.58.48c.58.48,1.14,1,1.69,1.46.19.18.38.35.57.54a46.5,46.5,0,0,1,3.41,3.61l.17.2c.48.57.94,1.14,1.39,1.74A45.3,45.3,0,0,1,112.44,24c.1.15.18.31.27.47.19.35.37.69.55,1.05.56,1.07,1.07,2.16,1.54,3.28A46.75,46.75,0,0,1,117.38,37c0,.2.09.4.12.6.11.48.2,1,.28,1.45a.34.34,0,0,1,0,.1h0l.2,2,.22,2.09v.14l.16,1.54C118.42,45.61,118.44,46.31,118.44,47Z"/><path class="cls-2" d="M112.44,24a116.94,116.94,0,0,0-44.06-3.41c-12.49,1.43-25,4.88-37.45,3.18l-.33-.05.18-.32h0a1.09,1.09,0,0,1,.08-.15c.23-.39.46-.77.7-1.15.69-1.11,1.43-2.2,2.21-3.24h0l0,0,0,0v0c.21-.28.42-.55.64-.82,6,2.09,12.72,2.35,19.13,1.76,8.62-.79,17.07-3,25.7-3.74a94.54,94.54,0,0,1,29.49,2.51A45.3,45.3,0,0,1,112.44,24Z"/><path class="cls-2" d="M118.44,47a47.47,47.47,0,0,1-.35,5.75,65.05,65.05,0,0,0-19.82-5.43c-14.48-1.42-28.85,3-43.37,3.87a84.39,84.39,0,0,1-30.45-3.8c0-.13,0-.26,0-.39,0-.49,0-1,0-1.48,0-.94.09-1.88.18-2.8v-.08a.41.41,0,0,0,0-.11s0-.05,0-.07h0c0-.31.06-.62.1-.92.13-1.14.3-2.26.51-3.37,4,.71,8,1.74,12,2.63,9,2,18.3,3.35,27.4,1.92C73.23,41.36,81.33,37.6,90,37c6.49-.45,13,.92,19.33,2.28L118,41.15l.22,2.09v.14l.16,1.54C118.42,45.61,118.44,46.31,118.44,47Z"/><path class="cls-2" d="M116.29,61.07c-.4,1.29-.86,2.55-1.37,3.79h0l-.18.44c-.11.26-.22.52-.34.78l-.09.19c-.52,1.17-1.09,2.31-1.72,3.42,0,.09-.09.17-.14.26-.14.27-.29.54-.45.8a316.54,316.54,0,0,1-34.32,7.36c-4.69.74-9.53,1.36-14.13.2s-8.55-4-13-5.48c-5.26-1.78-11-1.65-16.49-1.21-.84.07-1.68.14-2.53.18-.34-.53-.66-1.07-1-1.62s-.47-.84-.69-1.27-.54-1-.79-1.57l-.27-.58c.81,0,1.49.06,1.82.06A78.9,78.9,0,0,1,47.2,69.24c10.76,2.49,21.67,6,32.86,4.93,8.67-.84,16.8-4.44,24.76-8Z"/><path class="cls-3" d="M23.15,45.34c0,.5,0,1,0,1.52s0,.92,0,1.39a1.77,1.77,0,0,0,0,.23v0a48.69,48.69,0,0,0,.6,6.09c-7.45,5.09-11.37,10-10.29,14,1.19,4.33,8.31,6.6,19,6.79,11.67.23,27.59-2,44.65-6.75C94.53,63.78,109.62,57.35,119.51,51c8.61-5.52,13.29-10.94,12.12-15.16-1-3.8-6.68-6-15.28-6.64-.12-.34-.26-.69-.41-1-.48-1.15-1-2.27-1.58-3.37-.18-.37-.37-.72-.56-1.08C112.57,21.52,111,21,109.44,19c19.08.31,33,3.82,35.57,13.15,2.93,10.59-8.23,25.91-28.72,36.85a171.34,171.34,0,0,1-34.7,13.6,171.38,171.38,0,0,1-36.36,6.14C21.84,90,3.38,82.82.43,72.17c-2.59-9.39,6.63-19.06,23-29.17"/><path class="cls-4" d="M114.16,66.61A166.82,166.82,0,0,1,80.38,79.85a166.91,166.91,0,0,1-35.4,6C22.21,87,5.21,82,2.34,71.64-.19,62.5,8.82,51.29,24.77,41.45c0,.33-.08.66-.11,1h0c0,.06,0,.12,0,.18v.08c-.09.92-.15,1.86-.18,2.8,0,.49,0,1,0,1.48s0,.9,0,1.35a1.77,1.77,0,0,0,0,.23v0a46.34,46.34,0,0,0,.58,5.93C17.8,59.5,14,64.32,15,68.13c1.16,4.21,8.09,6.42,18.47,6.61,11.36.22,26.86-2,43.47-6.57,17-4.7,31.67-11,41.3-17.12,8.39-5.37,12.94-10.65,11.8-14.76-1-3.7-6.5-5.86-14.87-6.46-.12-.34-.26-.68-.4-1-.47-1.12-1-2.21-1.54-3.28-.18-.36-.36-.7-.55-1.05a46.77,46.77,0,0,0-4-6.17c18.57.3,31.92,5.27,34.43,14.36C146,43,134.11,56,114.16,66.61Z"/><circle class="cls-5" cx="51.19" cy="48.41" r="6.47"/><circle class="cls-6" cx="56.82" cy="42.78" r="4.78"/><circle class="cls-7" cx="58.5" cy="41.09" r="1.41"/><circle class="cls-5" cx="91.69" cy="48.41" r="6.47"/><circle class="cls-6" cx="86.07" cy="42.78" r="4.78"/><circle class="cls-7" cx="87.75" cy="41.09" r="1.41"/><path class="cls-8" d="M76.22,51.22a4.78,4.78,0,0,1-9.56,0"/></g></g></g></svg>