<svg xmlns="http://www.w3.org/2000/svg" viewBox="0 0 94 94"><defs><style>.cls-1{fill:#ff697d;}.cls-2{fill:#c1585f;}.cls-3{fill:#feaec9;}.cls-4{fill:#232323;}.cls-5{fill:#fff;}.cls-6{fill:none;stroke:#232323;stroke-linecap:round;stroke-miterlimit:10;stroke-width:1.69px;}</style></defs><title>Venus</title><g id="Layer_2" data-name="Layer 2"><g id="Planet_Characters" data-name="Planet Characters"><g id="Venus"><path class="cls-1" d="M94,47a46.75,46.75,0,0,1-4,19.09l-.09.19c-.52,1.17-1.09,2.31-1.72,3.42,0,.09-.09.17-.14.26-.17.33-.36.65-.55,1a46.8,46.8,0,0,1-5.41,7.38l0,0c-.78.88-1.6,1.72-2.45,2.53a44.45,44.45,0,0,1-4,3.42l-.35.27c-1,.78-2.1,1.52-3.2,2.21A43.89,43.89,0,0,1,67,89.56a47,47,0,0,1-48.06-4.89c-.25-.18-.49-.37-.73-.56l-1-.8c-.65-.53-1.3-1.09-1.92-1.67L15,81.41c-.43-.4-.86-.81-1.27-1.22a47.12,47.12,0,0,1-7.63-10c-.73-1.29-1.4-2.61-2-4-.11-.22-.2-.44-.3-.67-.43-1-.81-2-1.16-3l-.06-.17A46.91,46.91,0,0,1,0,48.62v0a1.77,1.77,0,0,1,0-.23Q0,47.68,0,47c0-.49,0-1,0-1.48,0-.94.09-1.88.18-2.8v-.08c0-.06,0-.12,0-.18h0A46.16,46.16,0,0,1,4.88,26.16c.08-.17.16-.34.25-.51.38-.76.79-1.5,1.21-2.23h0a1.09,1.09,0,0,1,.08-.15c.23-.39.46-.77.7-1.15A46.43,46.43,0,0,1,17.46,10.46l.25-.21a43.61,43.61,0,0,1,4.42-3.13c.18-.12.37-.23.56-.34a44.44,44.44,0,0,1,4.92-2.61,47.08,47.08,0,0,1,45.92,4q.56.38,1.11.78h0c.65.48,1.28,1,1.9,1.48l.58.48A46.86,46.86,0,0,1,88.27,24.49c.19.35.37.69.55,1.05.56,1.07,1.07,2.16,1.54,3.28a47.24,47.24,0,0,1,3,10.27.34.34,0,0,1,0,.1h0L94,44.92C94,45.61,94,46.31,94,47Z"/><path class="cls-2" d="M76.82,10.91c-6.63,1.32-13.5,2.21-20.16,1.07-5.73-1-11.15-3.43-16.95-3.89-5.57-.44-11,1-16.51,1.72-.68.09-3.59.58-5.74.65l.25-.21a43.61,43.61,0,0,1,4.42-3.13c.18-.12.37-.23.56-.34,6.82-1,13.81-1.54,20.48.06C48,8,52.6,10.27,57.59,10.56A36.87,36.87,0,0,0,68.06,9.15a14.92,14.92,0,0,1,4.82-.61A6.23,6.23,0,0,1,74.64,9h0a4.21,4.21,0,0,1,1.9,1.48A2.43,2.43,0,0,1,76.82,10.91Z"/><path class="cls-2" d="M90.32,28.8c-5.39.94-10.91,1.88-16.31,1-7-1.17-13.47-5.37-20.57-5-3.66.19-7.12,1.59-10.64,2.61a60.15,60.15,0,0,1-21.95,1.83,82.12,82.12,0,0,1-11-1.78q-2.49-.57-4.95-1.27c.08-.17.16-.34.25-.51.38-.76.79-1.5,1.21-2.23h0l.67.07a73.2,73.2,0,0,1,8.46,1.29c2.07.48,4.11,1.15,6.21,1.47a25.73,25.73,0,0,0,7.12,0c5.88-.71,11.52-2.79,17.4-3.52A72.23,72.23,0,0,1,58,22.53a46.36,46.36,0,0,1,11,1.29c2.21.61,4.31,1.54,6.55,2.05,4.33,1,8.86.32,13.26-.34Z"/><path class="cls-2" d="M93.36,39.19h0c-5.44.33-10.41,3.44-15.78,4.63-8.92,2-18.06-1.37-27.12-2.6s-18.24-.31-27.23,1.17C16.29,43.54,9.07,45,2.36,43a4.83,4.83,0,0,0-1.94-.35l-.22,0v.13L0,48.35c4.56,1.42,9.55,1.1,14.25.19C19.22,47.57,24,46,29,45a55.06,55.06,0,0,1,24.26,1c5.09,1.37,10.1,3.49,15.37,3.4,4.52-.08,8.81-1.78,13.11-3.13,4-1.24,8.23-2.2,12.24-1.36Z"/><path class="cls-2" d="M89.87,66.28c-.52,1.17-1.09,2.31-1.72,3.42C78.05,68.41,67.84,67,57.64,66.78a145.3,145.3,0,0,0-18.77.8C31,68.45,23.08,70,15.31,68.64,11.79,68,8.39,66.81,4.85,66.32l-.75-.1c-.11-.22-.2-.44-.3-.67-.43-1-.81-2-1.16-3C14.35,64.47,26.24,66,38,64.62c8.63-1,17.2-3.53,25.86-2.78S81.17,66.73,89.87,66.28Z"/><path class="cls-2" d="M79.57,80.87l-.76.21a70.6,70.6,0,0,1-13.67,2.81c-6,.47-12.11-.48-18.06-1.58s-11.89-2.38-17.95-2.6A37.65,37.65,0,0,0,17.3,81c-.37.11-1.17.32-2.05.61.62.58,1.27,1.14,1.92,1.67l1,.8c.24.19.48.38.73.56a27.87,27.87,0,0,1,12.76-.45c4.81.78,9.46,2.22,14.27,3,8.1,1.25,16.4.49,24.58-.27l1.53-.15Z"/><circle class="cls-3" cx="26.75" cy="48.41" r="6.47"/><circle class="cls-4" cx="32.38" cy="42.78" r="4.78"/><circle class="cls-5" cx="34.06" cy="41.09" r="1.41"/><circle class="cls-3" cx="67.25" cy="48.41" r="6.47"/><circle class="cls-4" cx="61.62" cy="42.78" r="4.78"/><circle class="cls-5" cx="63.31" cy="41.09" r="1.41"/><path class="cls-6" d="M51.78,51.22a4.78,4.78,0,0,1-9.56,0"/></g></g></g></svg>